<svg width="16" height="14" viewBox="0 0 16 14" fill="none" xmlns="http://www.w3.org/2000/svg">
<path d="M13.625 1.9375H11.6759L10.7176 0.500313C10.6662 0.423357 10.5967 0.360252 10.5151 0.31659C10.4336 0.272928 10.3425 0.250056 10.25 0.25H5.75C5.65749 0.250056 5.56642 0.272928 5.48486 0.31659C5.4033 0.360252 5.33377 0.423357 5.28242 0.500313L4.32336 1.9375H2.375C1.92745 1.9375 1.49822 2.11529 1.18176 2.43176C0.86529 2.74822 0.6875 3.17745 0.6875 3.625V11.5C0.6875 11.9476 0.86529 12.3768 1.18176 12.6932C1.49822 13.0097 1.92745 13.1875 2.375 13.1875H13.625C14.0726 13.1875 14.5018 13.0097 14.8182 12.6932C15.1347 12.3768 15.3125 11.9476 15.3125 11.5V3.625C15.3125 3.17745 15.1347 2.74822 14.8182 2.43176C14.5018 2.11529 14.0726 1.9375 13.625 1.9375ZM14.1875 11.5C14.1875 11.6492 14.1282 11.7923 14.0227 11.8977C13.9173 12.0032 13.7742 12.0625 13.625 12.0625H2.375C2.22582 12.0625 2.08274 12.0032 1.97725 11.8977C1.87176 11.7923 1.8125 11.6492 1.8125 11.5V3.625C1.8125 3.47582 1.87176 3.33274 1.97725 3.22725C2.08274 3.12176 2.22582 3.0625 2.375 3.0625H4.625C4.71763 3.06256 4.80884 3.03974 4.89053 2.99608C4.97223 2.95241 5.04187 2.88924 5.09328 2.81219L6.05094 1.375H9.94836L10.9067 2.81219C10.9581 2.88924 11.0278 2.95241 11.1095 2.99608C11.1912 3.03974 11.2824 3.06256 11.375 3.0625H13.625C13.7742 3.0625 13.9173 3.12176 14.0227 3.22725C14.1282 3.33274 14.1875 3.47582 14.1875 3.625V11.5ZM8 4.1875C7.38811 4.1875 6.78997 4.36895 6.2812 4.70889C5.77244 5.04884 5.37591 5.53201 5.14175 6.09732C4.90759 6.66263 4.84632 7.28468 4.9657 7.88481C5.08507 8.48494 5.37972 9.03619 5.81239 9.46886C6.24506 9.90153 6.79631 10.1962 7.39644 10.3156C7.99657 10.4349 8.61862 10.3737 9.18393 10.1395C9.74924 9.90534 10.2324 9.50881 10.5724 9.00004C10.9123 8.49128 11.0938 7.89314 11.0938 7.28125C11.0928 6.46102 10.7666 5.67465 10.1866 5.09467C9.6066 4.51468 8.82023 4.18843 8 4.1875ZM8 9.25C7.61062 9.25 7.22998 9.13453 6.90622 8.91821C6.58246 8.70188 6.33012 8.3944 6.18111 8.03466C6.0321 7.67492 5.99311 7.27907 6.06908 6.89717C6.14504 6.51527 6.33255 6.16447 6.60788 5.88913C6.88322 5.6138 7.23402 5.42629 7.61592 5.35033C7.99782 5.27436 8.39367 5.31335 8.75341 5.46236C9.11315 5.61137 9.42063 5.86371 9.63696 6.18747C9.85328 6.51123 9.96875 6.89187 9.96875 7.28125C9.96875 7.80339 9.76133 8.30415 9.39212 8.67337C9.0229 9.04258 8.52214 9.25 8 9.25Z" fill="#343330"/>
</svg>
