<svg width="64" height="64" viewBox="0 0 64 64" fill="none" xmlns="http://www.w3.org/2000/svg">
<path d="M56.14 25.9525C53.3575 24.4375 49.6175 23.3475 45.5 22.835V21C45.5 17.97 43.105 15.225 38.75 13.2675C34.79 11.4825 29.55 10.5 24 10.5C18.45 10.5 13.21 11.4825 9.25 13.2675C4.895 15.225 2.5 17.97 2.5 21V31C2.5 34.03 4.895 36.775 9.25 38.7325C11.8725 39.9125 15.0525 40.7325 18.5 41.165V43C18.5 46.03 20.895 48.775 25.25 50.7325C29.21 52.5175 34.45 53.5 40 53.5C45.55 53.5 50.79 52.5175 54.75 50.7325C59.0975 48.775 61.5 46.03 61.5 43V33C61.5 30.3375 59.5975 27.835 56.14 25.9525ZM54.705 28.5875C57.1525 29.92 58.5 31.5 58.5 33C58.5 36.5475 50.9025 40.5 40 40.5C38.2272 40.5011 36.4561 40.3892 34.6975 40.165C36.0834 39.7932 37.4383 39.3143 38.75 38.7325C43.0975 36.775 45.5 34.03 45.5 31V25.8575C49.1 26.34 52.325 27.29 54.705 28.5875ZM27.04 38.395C26.06 38.4625 25.04 38.5 24 38.5C22.675 38.5 21.4 38.44 20.18 38.3325C20.1492 38.3299 20.1183 38.3299 20.0875 38.3325C19.1925 38.25 18.3375 38.14 17.5 38.0075V31.03C19.6523 31.3453 21.8248 31.5024 24 31.5C26.1752 31.5024 28.3477 31.3453 30.5 31.03V38C29.415 38.1725 28.2725 38.305 27.0775 38.39L27.04 38.395ZM42.5 26.4725V31C42.5 33.385 39.0625 35.95 33.5 37.3775V30.4625C35.3015 30.0558 37.0596 29.4765 38.75 28.7325C40.0946 28.1486 41.3556 27.3886 42.5 26.4725ZM24 13.5C34.9025 13.5 42.5 17.4525 42.5 21C42.5 24.5475 34.9025 28.5 24 28.5C13.0975 28.5 5.5 24.5475 5.5 21C5.5 17.4525 13.0975 13.5 24 13.5ZM5.5 31V26.4725C6.64497 27.3851 7.90598 28.1417 9.25 28.7225C10.9404 29.4665 12.6985 30.0458 14.5 30.4525V37.3675C8.9375 35.95 5.5 33.385 5.5 31ZM21.5 43V41.43C22.325 41.475 23.1575 41.5 24 41.5C24.985 41.5 25.9567 41.4692 26.915 41.4075C28.0876 41.8306 29.2848 42.1821 30.5 42.46V49.3775C24.9375 47.95 21.5 45.385 21.5 43ZM33.5 50V43.025C35.6521 43.3421 37.8246 43.5009 40 43.5C42.1752 43.5024 44.3477 43.3453 46.5 43.03V50C42.1923 50.6667 37.8077 50.6667 33.5 50ZM49.5 49.3775V42.4625C51.3015 42.0558 53.0596 41.4765 54.75 40.7325C56.094 40.1517 57.355 39.3951 58.5 38.4825V43C58.5 45.385 55.0625 47.95 49.5 49.3775Z" fill="#898B94"/>
</svg>
