<svg width="32" height="32" viewBox="0 0 32 32" fill="none" xmlns="http://www.w3.org/2000/svg">
<path fill-rule="evenodd" clip-rule="evenodd" d="M24.375 0C29 0 32 3 32 7.62501V24.375C32 29 29 32 24.375 32H7.62501C3 32 0 29 0 24.375V7.62501C0 3 3 0 7.62501 0H24.375Z" fill="#2A2C36"/>
<path d="M14.5244 15.3047L6.21875 25.0275C6.52085 26.0555 7.4807 26.7769 8.55353 26.7769C9.02048 26.7769 9.42928 26.6602 9.7795 26.4267L19.9956 20.5914L14.5244 15.3047Z" fill="#EA4335"/>
<path d="M24.3144 13.9382L19.9356 11.4277L15.2656 16.0395L19.9942 20.5932L24.3725 18.1413C25.1315 17.7325 25.6571 16.9153 25.6571 16.0395C25.5985 15.1638 25.0734 14.3466 24.3144 13.9382Z" fill="#FBBC04"/>
<path d="M14.5043 16.7971L19.9375 11.4267L9.83808 5.70569C9.48786 5.47221 9.02048 5.35547 8.55353 5.35547C7.44472 5.35547 6.45223 6.11448 6.21875 7.10697L14.5043 16.7971Z" fill="#34A853"/>
<path d="M6.21832 7.10742C6.16016 7.28232 6.16016 7.51622 6.16016 7.74928V24.3873C6.16016 24.6204 6.16016 24.7957 6.21873 25.0292L15.2679 16.039L6.21832 7.10742Z" fill="#4285F4"/>
</svg>
