<svg width="24" height="24" viewBox="0 0 24 24" fill="none" xmlns="http://www.w3.org/2000/svg">
<path d="M20.9027 5.3445C19.8838 4.32811 18.5038 3.75655 17.0646 3.75479C15.6254 3.75303 14.2441 4.32123 13.2227 5.33512L11.9965 6.47419L10.7693 5.33137C9.7481 4.31307 8.36423 3.74212 6.92211 3.74415C5.47998 3.74617 4.09773 4.32099 3.07942 5.34216C2.06111 6.36332 1.49017 7.74718 1.49219 9.18931C1.49421 10.6314 2.06904 12.0137 3.0902 13.032L11.4668 21.5314C11.5366 21.6022 11.6197 21.6585 11.7115 21.6969C11.8032 21.7353 11.9017 21.7551 12.0011 21.7551C12.1006 21.7551 12.1991 21.7353 12.2908 21.6969C12.3825 21.6585 12.4657 21.6022 12.5355 21.5314L20.9027 13.032C21.9217 12.0124 22.4942 10.6298 22.4942 9.18825C22.4942 7.74669 21.9217 6.36414 20.9027 5.3445ZM19.8386 11.9782L11.9965 19.932L4.14958 11.9707C3.41111 11.2323 2.99625 10.2307 2.99625 9.18637C2.99625 8.14203 3.41111 7.14046 4.14958 6.402C4.88804 5.66354 5.88961 5.24867 6.93395 5.24867C7.9783 5.24867 8.97986 5.66354 9.71833 6.402L9.73708 6.42075L11.4855 8.04731C11.6243 8.17647 11.8069 8.24827 11.9965 8.24827C12.186 8.24827 12.3686 8.17647 12.5074 8.04731L14.2558 6.42075L14.2746 6.402C15.0135 5.66403 16.0154 5.24985 17.0597 5.25055C18.1041 5.25125 19.1054 5.66679 19.8433 6.40575C20.5813 7.14471 20.9955 8.14656 20.9948 9.1909C20.9941 10.2352 20.5785 11.2365 19.8396 11.9745L19.8386 11.9782Z" fill="#343330"/>
</svg>
