<svg width="24" height="24" viewBox="0 0 24 24" fill="none" xmlns="http://www.w3.org/2000/svg">
<path d="M21.6503 19.8756C20.2225 17.4072 18.0222 15.6372 15.4544 14.7981C16.7246 14.042 17.7114 12.8898 18.2634 11.5185C18.8153 10.1473 18.9019 8.63272 18.5098 7.20749C18.1177 5.78226 17.2685 4.52515 16.0928 3.62921C14.9171 2.73327 13.4798 2.24805 12.0016 2.24805C10.5234 2.24805 9.08609 2.73327 7.91037 3.62921C6.73465 4.52515 5.88553 5.78226 5.49342 7.20749C5.1013 8.63272 5.18787 10.1473 5.73983 11.5185C6.2918 12.8898 7.27863 14.042 8.54878 14.7981C5.98097 15.6362 3.78066 17.4062 2.35285 19.8756C2.30049 19.961 2.26576 20.056 2.2507 20.155C2.23565 20.254 2.24059 20.355 2.26521 20.4521C2.28984 20.5492 2.33366 20.6404 2.39409 20.7202C2.45452 20.8001 2.53033 20.867 2.61706 20.9171C2.70378 20.9672 2.79966 20.9995 2.89904 21.0119C2.99842 21.0243 3.09928 21.0167 3.19568 20.9896C3.29208 20.9624 3.38205 20.9162 3.4603 20.8537C3.53855 20.7912 3.60349 20.7136 3.65128 20.6256C5.41753 17.5731 8.53941 15.7506 12.0016 15.7506C15.4638 15.7506 18.5857 17.5731 20.3519 20.6256C20.3997 20.7136 20.4646 20.7912 20.5429 20.8537C20.6211 20.9162 20.7111 20.9624 20.8075 20.9896C20.9039 21.0167 21.0048 21.0243 21.1042 21.0119C21.2035 20.9995 21.2994 20.9672 21.3861 20.9171C21.4729 20.867 21.5487 20.8001 21.6091 20.7202C21.6695 20.6404 21.7134 20.5492 21.738 20.4521C21.7626 20.355 21.7675 20.254 21.7525 20.155C21.7374 20.056 21.7027 19.961 21.6503 19.8756ZM6.7516 9.0006C6.7516 7.96225 7.0595 6.94721 7.63638 6.08385C8.21326 5.2205 9.0332 4.54759 9.99251 4.15023C10.9518 3.75287 12.0074 3.6489 13.0258 3.85147C14.0442 4.05405 14.9797 4.55406 15.7139 5.28829C16.4481 6.02251 16.9481 6.95797 17.1507 7.97637C17.3533 8.99477 17.2493 10.0504 16.852 11.0097C16.4546 11.969 15.7817 12.7889 14.9183 13.3658C14.055 13.9427 13.0399 14.2506 12.0016 14.2506C10.6097 14.2491 9.27517 13.6955 8.29093 12.7113C7.30669 11.727 6.75309 10.3925 6.7516 9.0006Z" fill="#2A2C36"/>
</svg>
