<svg width="32" height="32" viewBox="0 0 32 32" fill="none" xmlns="http://www.w3.org/2000/svg">
<path fill-rule="evenodd" clip-rule="evenodd" d="M24.375 0C29 0 32 3 32 7.62501V24.375C32 29 29 32 24.375 32H7.62501C3 32 0 29 0 24.375V7.62501C0 3 3 0 7.62501 0H24.375Z" fill="#2A2C36"/>
<path fill-rule="evenodd" clip-rule="evenodd" d="M19.0139 7.30664C19.8201 6.43032 20.2641 5.22685 20.194 4C19.0957 4 17.8221 4.64264 17.0159 5.58907C16.3849 6.37189 15.7073 7.59875 15.9526 8.8256C17.086 8.96579 18.3128 8.25307 19.0139 7.30664ZM20.0888 9.09432C18.3829 9.09432 16.8757 10.0407 16.0695 10.0407C15.2282 10.0407 14.0014 9.0476 12.6226 9.09432C10.8232 9.12939 9.17578 10.1926 8.25274 11.7583C7.59842 12.88 7.34135 14.2003 7.36474 15.544C7.39978 18.0795 8.39292 20.7201 9.56135 22.4027C10.4611 23.6879 11.4776 25.0667 12.9147 25.0667C14.2117 25.0667 14.6907 24.202 16.3849 24.202C17.9623 24.202 18.4531 25.0667 19.8201 25.0667C21.2573 25.0667 22.2037 23.758 23.0567 22.4611C24.1316 20.9538 24.4938 19.5167 24.5406 19.4582C24.4938 19.4582 21.7831 18.3599 21.6779 15.2285C21.6779 12.4827 23.9096 11.2442 24.0031 11.1858C22.7879 9.31632 20.8249 9.09432 20.0888 9.09432Z" fill="white"/>
</svg>
