<svg width="16" height="16" viewBox="0 0 16 16" fill="none" xmlns="http://www.w3.org/2000/svg">
<path d="M13.5326 10.5311C13.4629 10.6011 13.3801 10.6565 13.2889 10.6944C13.1978 10.7322 13.1 10.7517 13.0013 10.7517C12.9026 10.7517 12.8049 10.7322 12.7137 10.6944C12.6225 10.6565 12.5397 10.6011 12.4701 10.5311L8.00193 6.06301L3.53255 10.5311C3.39165 10.672 3.20056 10.7512 3.0013 10.7512C2.80204 10.7512 2.61095 10.672 2.47005 10.5311C2.32915 10.3902 2.25 10.1991 2.25 9.99989C2.25 9.80063 2.32915 9.60953 2.47005 9.46864L7.47005 4.46864C7.53973 4.39872 7.62252 4.34324 7.71369 4.30539C7.80485 4.26753 7.90259 4.24805 8.0013 4.24805C8.10001 4.24805 8.19775 4.26753 8.28892 4.30539C8.38008 4.34324 8.46287 4.39872 8.53255 4.46864L13.5326 9.46864C13.6025 9.53832 13.6579 9.62111 13.6958 9.71227C13.7337 9.80344 13.7531 9.90118 13.7531 9.99989C13.7531 10.0986 13.7337 10.1963 13.6958 10.2875C13.6579 10.3787 13.6025 10.4615 13.5326 10.5311Z" fill="#343330"/>
</svg>
