<svg width="32" height="32" viewBox="0 0 32 32" fill="none" xmlns="http://www.w3.org/2000/svg">
<g clip-path="url(#clip0_7621_53921)">
<path d="M16 32C24.8366 32 32 24.8366 32 16C32 7.16344 24.8366 0 16 0C7.16344 0 0 7.16344 0 16C0 24.8366 7.16344 32 16 32Z" fill="#C3C5CC"/>
<path fill-rule="evenodd" clip-rule="evenodd" d="M8.03117 14.5964C12.0577 12.7618 14.7427 11.5523 16.0861 10.968C19.9219 9.2995 20.7189 9.00967 21.2384 9.0001C21.3527 8.998 21.6082 9.02761 21.7737 9.16804C21.9134 9.28661 21.9518 9.44679 21.9702 9.55921C21.9886 9.67163 22.0115 9.92773 21.9933 10.1278C21.7855 12.4118 20.8861 17.9545 20.4285 20.5127C20.2349 21.5951 19.8536 21.958 19.4845 21.9936C18.6824 22.0707 18.0734 21.4392 17.2965 20.9067C16.0809 20.0733 15.3941 19.5545 14.2141 18.7413C12.8504 17.8015 13.7344 17.285 14.5116 16.4409C14.715 16.22 18.249 12.8583 18.3174 12.5533C18.326 12.5152 18.3339 12.373 18.2532 12.298C18.1724 12.2229 18.0532 12.2486 17.9672 12.269C17.8453 12.2979 15.9033 13.6403 12.1411 16.2961C11.5899 16.6919 11.0906 16.8848 10.6433 16.8747C10.1501 16.8635 9.20146 16.5831 8.49623 16.3433C7.63124 16.0493 6.94377 15.8938 7.00363 15.3944C7.03481 15.1343 7.37733 14.8683 8.03117 14.5964Z" fill="white"/>
</g>
<defs>
<clipPath id="clip0_7621_53921">
<rect width="32" height="32" fill="white"/>
</clipPath>
</defs>
</svg>
