<svg width="14" height="14" viewBox="0 0 14 14" fill="none" xmlns="http://www.w3.org/2000/svg">
<path fill-rule="evenodd" clip-rule="evenodd" d="M3.3888 1.59545C4.45772 0.881218 5.71442 0.5 7 0.5C8.72325 0.50215 10.3753 1.18766 11.5938 2.40618C12.8123 3.6247 13.4979 5.27675 13.5 7C13.5 8.28558 13.1188 9.54229 12.4046 10.6112C11.6903 11.6801 10.6752 12.5132 9.48744 13.0052C8.29973 13.4972 6.99279 13.6259 5.73192 13.3751C4.47104 13.1243 3.31285 12.5052 2.40381 11.5962C1.49477 10.6872 0.875703 9.52896 0.624899 8.26809C0.374095 7.00721 0.502816 5.70028 0.994786 4.51256C1.48676 3.32484 2.31988 2.30968 3.3888 1.59545ZM5.85899 8.75233C6.15188 9.04523 6.62676 9.04523 6.91965 8.75233L9.3641 6.30789C9.65699 6.015 9.65699 5.54012 9.3641 5.24723C9.07121 4.95434 8.59633 4.95434 8.30344 5.24723L6.38932 7.16134L5.69743 6.46945C5.40454 6.17656 4.92966 6.17656 4.63677 6.46945C4.34388 6.76235 4.34388 7.23722 4.63677 7.53011L5.85899 8.75233Z" fill="#74B200"/>
</svg>
