<svg width="32" height="32" viewBox="0 0 32 32" fill="none" xmlns="http://www.w3.org/2000/svg">
<circle cx="16" cy="16" r="16" fill="#C4C4CC"/>
<g clip-path="url(#clip0_7621_53911)">
<path d="M23.6811 12.1233C23.5906 11.7829 23.4123 11.4722 23.1641 11.2224C22.9159 10.9725 22.6063 10.7923 22.2665 10.6996C21.0156 10.3633 16.0156 10.3633 16.0156 10.3633C16.0156 10.3633 11.0156 10.3633 9.76472 10.6996C9.42491 10.7923 9.1154 10.9725 8.86715 11.2224C8.6189 11.4722 8.44063 11.7829 8.35017 12.1233C8.01563 13.3796 8.01562 15.9996 8.01562 15.9996C8.01562 15.9996 8.01563 18.6196 8.35017 19.876C8.44063 20.2164 8.6189 20.5271 8.86715 20.7769C9.1154 21.0267 9.42491 21.207 9.76472 21.2996C11.0156 21.636 16.0156 21.636 16.0156 21.636C16.0156 21.636 21.0156 21.636 22.2665 21.2996C22.6063 21.207 22.9159 21.0267 23.1641 20.7769C23.4123 20.5271 23.5906 20.2164 23.6811 19.876C24.0156 18.6196 24.0156 15.9996 24.0156 15.9996C24.0156 15.9996 24.0156 13.3796 23.6811 12.1233Z" fill="white"/>
<path d="M14.3828 18.3793V13.6211L18.5646 16.0002L14.3828 18.3793Z" fill="#D0D1D9"/>
</g>
<defs>
<clipPath id="clip0_7621_53911">
<rect width="16" height="16" fill="white" transform="translate(8 8)"/>
</clipPath>
</defs>
</svg>
